<?xml version="1.0" encoding="UTF-8"?>
<svg width="200" height="60" viewBox="0 0 200 60" xmlns="http://www.w3.org/2000/svg">
  <!-- Piksel tarzı MAT yazısı -->
  <!-- M -->
  <g className="letter-m">
    <rect x="10" y="10" width="5" height="5" fill="#64ffda"/>
    <rect x="15" y="10" width="5" height="5" fill="#64ffda"/>
    <rect x="30" y="10" width="5" height="5" fill="#64ffda"/>
    <rect x="35" y="10" width="5" height="5" fill="#64ffda"/>
    <rect x="10" y="15" width="5" height="5" fill="#64ffda"/>
    <rect x="20" y="15" width="5" height="5" fill="#64ffda"/>
    <rect x="25" y="15" width="5" height="5" fill="#64ffda"/>
    <rect x="35" y="15" width="5" height="5" fill="#64ffda"/>
    <rect x="10" y="20" width="5" height="5" fill="#64ffda"/>
    <rect x="35" y="20" width="5" height="5" fill="#64ffda"/>
    <rect x="10" y="25" width="5" height="5" fill="#64ffda"/>
    <rect x="35" y="25" width="5" height="5" fill="#64ffda"/>
  </g>
  <!-- A -->
  <g className="letter-a">
    <rect x="50" y="10" width="5" height="5" fill="#64ffda"/>
    <rect x="55" y="10" width="5" height="5" fill="#64ffda"/>
    <rect x="60" y="10" width="5" height="5" fill="#64ffda"/>
    <rect x="45" y="15" width="5" height="5" fill="#64ffda"/>
    <rect x="65" y="15" width="5" height="5" fill="#64ffda"/>
    <rect x="45" y="20" width="5" height="5" fill="#64ffda"/>
    <rect x="50" y="20" width="5" height="5" fill="#64ffda"/>
    <rect x="55" y="20" width="5" height="5" fill="#64ffda"/>
    <rect x="60" y="20" width="5" height="5" fill="#64ffda"/>
    <rect x="65" y="20" width="5" height="5" fill="#64ffda"/>
    <rect x="45" y="25" width="5" height="5" fill="#64ffda"/>
    <rect x="65" y="25" width="5" height="5" fill="#64ffda"/>
  </g>
  <!-- T -->
  <g className="letter-t">
    <rect x="75" y="10" width="5" height="5" fill="#64ffda"/>
    <rect x="80" y="10" width="5" height="5" fill="#64ffda"/>
    <rect x="85" y="10" width="5" height="5" fill="#64ffda"/>
    <rect x="90" y="10" width="5" height="5" fill="#64ffda"/>
    <rect x="95" y="10" width="5" height="5" fill="#64ffda"/>
    <rect x="85" y="15" width="5" height="5" fill="#64ffda"/>
    <rect x="85" y="20" width="5" height="5" fill="#64ffda"/>
    <rect x="85" y="25" width="5" height="5" fill="#64ffda"/>
  </g>
  <!-- Dijital efektler -->
  <g className="digital-effects" opacity="0.3">
    <rect x="5" y="35" width="2" height="2" fill="#1d4ed8"/>
    <rect x="25" y="5" width="2" height="2" fill="#1d4ed8"/>
    <rect x="70" y="35" width="2" height="2" fill="#1d4ed8"/>
    <rect x="95" y="5" width="2" height="2" fill="#1d4ed8"/>
    <rect x="100" y="20" width="2" height="2" fill="#1d4ed8"/>
  </g>
  <!-- Binary kod efekti -->
  <g className="binary" fill="#1d4ed8" opacity="0.2" fontSize="8">
    <text x="110" y="15">10</text>
    <text x="110" y="25">01</text>
    <text x="0" y="15">01</text>
    <text x="0" y="25">10</text>
  </g>
</svg> 